<svg xmlns="http://www.w3.org/2000/svg" version="1.1" viewBox="0 0 56 56" width="72" height="72">
  <defs>
    <style>
      .cls-1 {
        stroke: #000;
      }

      .cls-1, .cls-2 {
        fill: #ebebeb;
        stroke-miterlimit: 10;
        stroke-width: 2px;
        opacity: .5;
      }

      .cls-2 {
        stroke: #3c3c3c;
      }

      .cls-3 {
        fill: #3c3c3c;
      }
    </style>
  </defs>
  <!-- Generator: Adobe Illustrator 28.6.0, SVG Export Plug-In . SVG Version: 1.2.0 Build 709)  -->
  <g>
    <g id="Capa_1">
      <circle class="cls-2" cx="28" cy="28" r="25.1"/>
      <path class="cls-3" d="M28,20.7c6.9,0,11.8,4.4,13.9,6.8-2,2.7-6.9,7.8-13.9,7.8s-11.6-5.2-13.9-7.9c2.2-2.4,7-6.7,13.9-6.7ZM28,18.5c-10.3,0-16.3,8.9-16.3,8.9,0,0,6.6,10.1,16.3,10.1s16.3-10.1,16.3-10.1c0,0-5.8-8.9-16.3-8.9ZM28,22.6c-3,0-5.4,2.4-5.4,5.4s2.4,5.4,5.4,5.4,5.4-2.4,5.4-5.4-2.4-5.4-5.4-5.4ZM28,28c-.8.8-2,.8-2.8,0s-.8-2,0-2.8c.8-.8,2-.8,2.8,0s.8,2,0,2.8Z"/>
      <circle class="cls-1" cx="95.6" cy="28" r="25.1"/>
      <path d="M95.6,21.2c6.5,0,11,4.1,12.9,6.3-1.9,2.5-6.4,7.3-12.9,7.3s-10.8-4.8-12.9-7.3c2-2.2,6.5-6.2,12.9-6.2ZM95.6,18.5c-10.3,0-16.3,8.9-16.3,8.9,0,0,6.6,10.1,16.3,10.1s16.3-10.1,16.3-10.1c0,0-5.8-8.9-16.3-8.9ZM95.6,22.6c-3,0-5.4,2.4-5.4,5.4s2.4,5.4,5.4,5.4,5.4-2.4,5.4-5.4-2.4-5.4-5.4-5.4ZM95.5,28c-.8.8-2,.8-2.8,0s-.8-2,0-2.8c.8-.8,2-.8,2.8,0s.8,2,0,2.8Z"/>
    </g>
  </g>
</svg>